<svg xmlns="http://www.w3.org/2000/svg" viewBox="0 0 100 100">
  <circle cx="50" cy="50" r="50" fill="#2c3e50"/>
  <ellipse cx="50" cy="55" rx="28" ry="32" fill="#e8d5c4"/>
  <path d="M25 25 Q40 20 50 22 Q60 20 75 25 Q78 35 75 45 L65 40 L50 35 L35 40 L25 45 Q22 35 25 25" fill="#silver"/>
  <ellipse cx="38" cy="50" rx="5" ry="4" fill="#3a5a7a"/>
  <ellipse cx="62" cy="50" rx="5" ry="4" fill="#3a5a7a"/>
  <circle cx="38" cy="50" r="2" fill="#1a1a1a"/>
  <circle cx="62" cy="50" r="2" fill="#1a1a1a"/>
  <path d="M42 72 Q50 76 58 72" fill="#c4a5a5"/>
  <path d="M40 60 L45 62 L50 60 L55 62 L60 60" fill="#c4a090"/>
  <path d="M28 45 L38 48 M72 45 L62 48" stroke="#8a8a8a" stroke-width="1"/>
</svg>