<svg xmlns="http://www.w3.org/2000/svg" viewBox="0 0 100 100">
  <circle cx="50" cy="50" r="50" fill="#1a252f"/>
  <ellipse cx="50" cy="55" rx="28" ry="32" fill="#8b6b4a"/>
  <path d="M30 30 Q40 25 50 28 Q60 25 70 30 Q72 20 65 18 Q55 15 50 18 Q45 15 35 18 Q28 20 30 30" fill="#2a2a2a"/>
  <ellipse cx="38" cy="50" rx="5" ry="4" fill="#2a2a2a"/>
  <ellipse cx="62" cy="50" rx="5" ry="4" fill="#2a2a2a"/>
  <circle cx="38" cy="50" r="2" fill="#1a1a1a"/>
  <circle cx="62" cy="50" r="2" fill="#1a1a1a"/>
  <path d="M42 72 Q50 78 58 72" fill="#6a4a3a"/>
  <path d="M30 43 L38 46 M70 43 L62 46" stroke="#2a2a2a" stroke-width="2"/>
  <ellipse cx="50" cy="62" rx="8" ry="4" fill="#7a5a4a"/>
</svg>