<svg xmlns="http://www.w3.org/2000/svg" viewBox="0 0 100 100">
  <defs>
    <linearGradient id="rasBg" x1="0%" y1="0%" x2="100%" y2="100%">
      <stop offset="0%" style="stop-color:#1e3a2f"/>
      <stop offset="100%" style="stop-color:#0a1a14"/>
    </linearGradient>
    <linearGradient id="rasSkin" x1="0%" y1="0%" x2="0%" y2="100%">
      <stop offset="0%" style="stop-color:#d4b898"/>
      <stop offset="100%" style="stop-color:#b89878"/>
    </linearGradient>
  </defs>
  <!-- Background -->
  <circle cx="50" cy="50" r="50" fill="url(#rasBg)"/>
  <!-- Hair/head wrap -->
  <ellipse cx="50" cy="30" rx="30" ry="20" fill="#1a1a1a"/>
  <path d="M20 35 Q30 25 50 28 Q70 25 80 35 L78 42 L22 42 Z" fill="#2a2a2a"/>
  <!-- Face -->
  <ellipse cx="50" cy="58" rx="28" ry="32" fill="url(#rasSkin)"/>
  <!-- Beard - distinguished goatee -->
  <path d="M35 68 Q40 72 50 75 Q60 72 65 68 L65 82 Q58 90 50 92 Q42 90 35 82 Z" fill="#3a3a3a"/>
  <path d="M40 70 Q50 73 60 70" fill="none" stroke="#2a2a2a" stroke-width="1"/>
  <path d="M42 75 Q50 78 58 75" fill="none" stroke="#2a2a2a" stroke-width="1"/>
  <!-- Mustache -->
  <path d="M35 65 Q42 62 50 65 Q58 62 65 65 L65 68 Q58 70 50 67 Q42 70 35 68 Z" fill="#3a3a3a"/>
  <!-- Eyes - piercing, wise -->
  <ellipse cx="35" cy="52" rx="8" ry="5" fill="#fff"/>
  <ellipse cx="65" cy="52" rx="8" ry="5" fill="#fff"/>
  <circle cx="35" cy="52" r="3.5" fill="#4a6040"/>
  <circle cx="65" cy="52" r="3.5" fill="#4a6040"/>
  <circle cx="35" cy="52" r="2" fill="#1a1a1a"/>
  <circle cx="65" cy="52" r="2" fill="#1a1a1a"/>
  <circle cx="34" cy="51" r="1" fill="#fff"/>
  <circle cx="64" cy="51" r="1" fill="#fff"/>
  <!-- Eyebrows - thick, commanding -->
  <path d="M25 46 Q35 42 45 46" fill="none" stroke="#2a2a2a" stroke-width="3" stroke-linecap="round"/>
  <path d="M55 46 Q65 42 75 46" fill="none" stroke="#2a2a2a" stroke-width="3" stroke-linecap="round"/>
  <!-- Nose -->
  <path d="M50 55 L47 64 L53 64 Z" fill="#c4a078" opacity="0.6"/>
  <!-- Wrinkles - aged wisdom -->
  <path d="M28 48 L32 50" stroke="#a08060" stroke-width="0.5"/>
  <path d="M68 50 L72 48" stroke="#a08060" stroke-width="0.5"/>
  <path d="M30 60 Q32 62 30 64" stroke="#a08060" stroke-width="0.5" fill="none"/>
  <path d="M70 60 Q68 62 70 64" stroke="#a08060" stroke-width="0.5" fill="none"/>
  <!-- Collar/robe hint -->
  <path d="M25 88 Q35 82 50 85 Q65 82 75 88 L80 100 L20 100 Z" fill="#1a3a2a"/>
  <path d="M35 86 L50 90 L65 86" fill="none" stroke="#0a2a1a" stroke-width="1"/>
</svg>
