<svg xmlns="http://www.w3.org/2000/svg" viewBox="0 0 100 100">
  <circle cx="50" cy="50" r="50" fill="#4a3728"/>
  <ellipse cx="50" cy="55" rx="30" ry="35" fill="#c4a060"/>
  <path d="M20 30 L35 45 L30 60 L25 45 Z" fill="#8b7355"/>
  <path d="M80 30 L65 45 L70 60 L75 45 Z" fill="#8b7355"/>
  <ellipse cx="35" cy="48" rx="10" ry="8" fill="#1a1a1a"/>
  <ellipse cx="65" cy="48" rx="10" ry="8" fill="#1a1a1a"/>
  <path d="M30 65 L35 75 L40 65 L45 78 L50 65 L55 78 L60 65 L65 75 L70 65" stroke="#4a3020" stroke-width="2" fill="none"/>
  <path d="M25 40 L30 35 M75 40 L70 35" stroke="#4a3020" stroke-width="2"/>
  <line x1="30" y1="48" x2="40" y2="48" stroke="#8b0000" stroke-width="1"/>
  <line x1="60" y1="48" x2="70" y2="48" stroke="#8b0000" stroke-width="1"/>
</svg>